<?xml version="1.0" standalone="no"?>
<!DOCTYPE svg PUBLIC "-//W3C//DTD SVG 20010904//EN"
 "http://www.w3.org/TR/2001/REC-SVG-20010904/DTD/svg10.dtd">
<svg version="1.0" xmlns="http://www.w3.org/2000/svg"
 width="16.000000pt" height="16.000000pt" viewBox="0 0 16.000000 16.000000"
 preserveAspectRatio="xMidYMid meet">
<metadata>
Created by potrace 1.11, written by Peter Selinger 2001-2013
</metadata>
<g transform="translate(0.000000,16.000000) scale(0.003125,-0.003125)"
fill="#000000" stroke="none">
<path d="M1845 4360 c-889 -124 -1424 -203 -1449 -214 -52 -22 -121 -79 -153
-127 -54 -82 -75 -163 -80 -309 -8 -223 34 -395 126 -517 34 -44 37 -53 23
-57 -210 -61 -232 -71 -232 -112 0 -30 55 -75 120 -98 124 -44 186 -209 172
-452 l-4 -81 -102 -32 c-231 -76 -324 -142 -229 -165 15 -4 45 -12 66 -17 l38
-10 -29 -37 c-38 -48 -66 -104 -86 -172 -49 -163 -21 -453 59 -610 29 -58 98
-136 139 -157 17 -9 456 -155 975 -324 l945 -307 1398 339 c770 186 1403 341
1408 344 18 11 10 33 -20 58 -31 27 -137 71 -256 107 l-71 21 -7 46 c-18 135
3 296 50 383 31 58 69 89 137 115 63 24 97 56 97 93 0 35 -11 45 -65 61 -22 7
-46 14 -53 17 -8 2 5 22 35 52 102 102 151 245 160 463 8 193 -14 297 -87 405
l-20 32 131 32 c133 33 153 46 128 77 -20 24 -137 76 -256 113 l-101 32 -4 72
c-5 113 8 246 33 310 27 73 87 136 149 156 88 29 135 95 93 132 -16 14 -1742
540 -1761 537 -4 -1 -641 -90 -1417 -199z m-442 -697 c502 -163 914 -298 916
-300 6 -4 -14 -601 -20 -607 -3 -4 -421 110 -928 252 -704 198 -927 264 -945
281 -13 12 -35 44 -50 70 -73 135 -76 443 -4 543 21 31 68 57 101 58 11 0 429
-134 930 -297z m3288 116 c-32 -73 -43 -164 -39 -324 l3 -149 -1123 -279
c-618 -154 -1125 -277 -1126 -276 -3 4 15 602 18 606 2 3 2281 470 2284 468 1
-1 -6 -22 -17 -46z m3 -793 c71 -29 106 -127 106 -292 0 -167 -39 -302 -106
-365 -17 -16 -250 -85 -945 -280 -508 -142 -925 -256 -928 -253 -6 6 -26 603
-20 608 11 9 1818 594 1837 595 12 1 38 -5 56 -13z m-3709 -236 c1493 -307
1710 -351 1711 -353 3 -4 21 -602 18 -606 -1 -2 -508 123 -1125 276 l-1122
280 -1 189 c-1 194 -3 207 -51 318 -7 15 -5 17 11 12 10 -3 262 -55 559 -116z
m263 -1006 c499 -163 910 -299 914 -302 6 -6 -10 -603 -17 -610 -1 -1 -418
114 -925 257 l-924 259 -37 39 c-49 53 -78 136 -91 264 -20 187 15 329 92 370
19 11 45 19 58 19 13 0 431 -133 930 -296z m3302 161 c0 -2 -12 -40 -27 -82
-26 -74 -28 -88 -28 -257 l0 -180 -1119 -278 c-616 -153 -1121 -276 -1124
-273 -6 6 13 593 20 600 3 3 112 28 242 55 186 38 243 47 268 39 27 -7 56 -2
163 33 88 28 365 91 860 194 835 173 745 155 745 149z"/>
</g>
</svg>
